<mxfile host="65bd71144e">
    <diagram id="EUoIF8F6BoiCCJ9SxhuZ" name="Page-1">
        <mxGraphModel dx="1316" dy="429" grid="1" gridSize="10" guides="1" tooltips="1" connect="1" arrows="1" fold="1" page="1" pageScale="1" pageWidth="850" pageHeight="1100" math="0" shadow="0">
            <root>
                <mxCell id="0"/>
                <mxCell id="1" parent="0"/>
                <mxCell id="107" value="" style="whiteSpace=wrap;html=1;opacity=50;fillColor=light-dark(#FFFFFF,#003333);" parent="1" vertex="1">
                    <mxGeometry x="560" y="628" width="890" height="70" as="geometry"/>
                </mxCell>
                <mxCell id="108" value="" style="whiteSpace=wrap;html=1;fillColor=light-dark(#D0CEE2,#330033);strokeColor=#56517e;opacity=50;" parent="1" vertex="1">
                    <mxGeometry x="560" y="300" width="890" height="240" as="geometry"/>
                </mxCell>
                <mxCell id="129" style="edgeStyle=none;html=1;exitX=0.5;exitY=0;exitDx=0;exitDy=0;entryX=0;entryY=0.75;entryDx=0;entryDy=0;strokeColor=light-dark(#000000,#001DBC);" parent="1" source="42" target="54" edge="1">
                    <mxGeometry relative="1" as="geometry">
                        <mxPoint x="710" y="610" as="targetPoint"/>
                        <Array as="points">
                            <mxPoint x="1350" y="120"/>
                            <mxPoint x="760" y="120"/>
                            <mxPoint x="760" y="670"/>
                        </Array>
                    </mxGeometry>
                </mxCell>
                <mxCell id="109" value="" style="whiteSpace=wrap;html=1;opacity=50;fillColor=light-dark(#FFFFFF,#003300);" parent="1" vertex="1">
                    <mxGeometry x="560" y="160" width="570" height="80" as="geometry"/>
                </mxCell>
                <mxCell id="106" value="&lt;span style=&quot;font-family: monospace; font-size: 0px; text-align: start; text-wrap-mode: nowrap;&quot;&gt;%3CmxGraphModel%3E%3Croot%3E%3CmxCell%20id%3D%220%22%2F%3E%3CmxCell%20id%3D%221%22%20parent%3D%220%22%2F%3E%3CmxCell%20id%3D%222%22%20value%3D%22%22%20style%3D%22whiteSpace%3Dwrap%3Bhtml%3D1%3B%22%20vertex%3D%221%22%20parent%3D%221%22%3E%3CmxGeometry%20y%3D%22440%22%20width%3D%221320%22%20height%3D%22130%22%20as%3D%22geometry%22%2F%3E%3C%2FmxCell%3E%3C%2Froot%3E%3C%2FmxGraphModel%3E&lt;/span&gt;" style="whiteSpace=wrap;html=1;opacity=50;fillColor=light-dark(#FFFFFF,#33001A);" parent="1" vertex="1">
                    <mxGeometry x="560" y="780" width="1070" height="150" as="geometry"/>
                </mxCell>
                <mxCell id="40" style="edgeStyle=none;html=1;exitX=0.5;exitY=1;exitDx=0;exitDy=0;entryX=0.5;entryY=0;entryDx=0;entryDy=0;strokeColor=light-dark(#000000,#001DBC);" parent="1" source="30" target="27" edge="1">
                    <mxGeometry relative="1" as="geometry"/>
                </mxCell>
                <mxCell id="38" style="edgeStyle=none;html=1;exitX=0.25;exitY=1;exitDx=0;exitDy=0;entryX=0.25;entryY=0;entryDx=0;entryDy=0;fillColor=#0050ef;strokeColor=light-dark(#001DBC,#3333FF);" parent="1" source="3" target="130" edge="1">
                    <mxGeometry relative="1" as="geometry">
                        <mxPoint x="620" y="240" as="sourcePoint"/>
                        <mxPoint x="620" y="320" as="targetPoint"/>
                    </mxGeometry>
                </mxCell>
                <mxCell id="3" value="get()" style="whiteSpace=wrap;html=1;rotation=0;" parent="1" vertex="1">
                    <mxGeometry x="610" y="180" width="80" height="40" as="geometry"/>
                </mxCell>
                <mxCell id="39" style="edgeStyle=none;html=1;exitX=0.5;exitY=1;exitDx=0;exitDy=0;entryX=0.5;entryY=0;entryDx=0;entryDy=0;strokeColor=light-dark(#000000,#3333FF);" parent="1" source="4" target="28" edge="1">
                    <mxGeometry relative="1" as="geometry"/>
                </mxCell>
                <mxCell id="4" value="set()" style="whiteSpace=wrap;html=1;rotation=0;" parent="1" vertex="1">
                    <mxGeometry x="780" y="180" width="80" height="40" as="geometry"/>
                </mxCell>
                <mxCell id="80" style="edgeStyle=none;html=1;exitX=0.75;exitY=0;exitDx=0;exitDy=0;entryX=0.75;entryY=1;entryDx=0;entryDy=0;fillColor=#e3c800;strokeColor=light-dark(#B09500,#FFFF33);" parent="1" source="130" target="3" edge="1">
                    <mxGeometry relative="1" as="geometry"/>
                </mxCell>
                <mxCell id="20" value="get()" style="whiteSpace=wrap;html=1;rotation=0;" parent="1" vertex="1">
                    <mxGeometry x="610" y="320" width="80" height="40" as="geometry"/>
                </mxCell>
                <mxCell id="49" style="edgeStyle=none;html=1;exitX=0;exitY=0.5;exitDx=0;exitDy=0;entryX=0;entryY=0.75;entryDx=0;entryDy=0;strokeColor=light-dark(#000000,#3333FF);" parent="1" source="21" target="54" edge="1">
                    <mxGeometry relative="1" as="geometry">
                        <mxPoint x="760" y="590" as="targetPoint"/>
                        <mxPoint x="750" y="420" as="sourcePoint"/>
                        <Array as="points">
                            <mxPoint x="760" y="420"/>
                            <mxPoint x="760" y="670"/>
                        </Array>
                    </mxGeometry>
                </mxCell>
                <mxCell id="21" value="set_vm()" style="whiteSpace=wrap;html=1;rotation=0;" parent="1" vertex="1">
                    <mxGeometry x="780" y="400" width="80" height="40" as="geometry"/>
                </mxCell>
                <mxCell id="50" style="edgeStyle=none;html=1;exitX=0;exitY=0.5;exitDx=0;exitDy=0;entryX=0;entryY=0.75;entryDx=0;entryDy=0;strokeColor=light-dark(#000000,#3333FF);" parent="1" source="22" target="54" edge="1">
                    <mxGeometry relative="1" as="geometry">
                        <mxPoint x="750" y="460" as="targetPoint"/>
                        <Array as="points">
                            <mxPoint x="760" y="460"/>
                            <mxPoint x="760" y="670"/>
                        </Array>
                    </mxGeometry>
                </mxCell>
                <mxCell id="22" value="set_nvm()" style="whiteSpace=wrap;html=1;rotation=0;" parent="1" vertex="1">
                    <mxGeometry x="780" y="440" width="80" height="40" as="geometry"/>
                </mxCell>
                <mxCell id="23" value="#foreign.set()" style="whiteSpace=wrap;html=1;rotation=0;" parent="1" vertex="1">
                    <mxGeometry x="780" y="480" width="80" height="40" as="geometry"/>
                </mxCell>
                <mxCell id="24" value="#foreign.get()" style="whiteSpace=wrap;html=1;rotation=0;" parent="1" vertex="1">
                    <mxGeometry x="610" y="360" width="80" height="40" as="geometry"/>
                </mxCell>
                <mxCell id="100" style="edgeStyle=none;html=1;exitX=1;exitY=0.5;exitDx=0;exitDy=0;entryX=0.5;entryY=0;entryDx=0;entryDy=0;strokeColor=light-dark(#000000,#001DBC);" parent="1" source="27" target="99" edge="1">
                    <mxGeometry relative="1" as="geometry">
                        <Array as="points">
                            <mxPoint x="1110" y="400"/>
                            <mxPoint x="1110" y="560"/>
                            <mxPoint x="1570" y="560"/>
                        </Array>
                    </mxGeometry>
                </mxCell>
                <mxCell id="27" value="invalidate_vm()" style="whiteSpace=wrap;html=1;" parent="1" vertex="1">
                    <mxGeometry x="970" y="380" width="120" height="40" as="geometry"/>
                </mxCell>
                <mxCell id="36" style="edgeStyle=none;html=1;exitX=0.5;exitY=1;exitDx=0;exitDy=0;entryX=0.5;entryY=0;entryDx=0;entryDy=0;strokeColor=light-dark(#000000,#3333FF);" parent="1" source="28" target="21" edge="1">
                    <mxGeometry relative="1" as="geometry"/>
                </mxCell>
                <mxCell id="28" value="set()" style="whiteSpace=wrap;html=1;rotation=0;" parent="1" vertex="1">
                    <mxGeometry x="780" y="320" width="80" height="40" as="geometry"/>
                </mxCell>
                <mxCell id="29" value="invalidate_nvm()" style="whiteSpace=wrap;html=1;" parent="1" vertex="1">
                    <mxGeometry x="970" y="420" width="120" height="40" as="geometry"/>
                </mxCell>
                <mxCell id="30" value="invalidate()" style="whiteSpace=wrap;html=1;rotation=0;" parent="1" vertex="1">
                    <mxGeometry x="970" y="180" width="120" height="40" as="geometry"/>
                </mxCell>
                <mxCell id="124" style="edgeStyle=none;html=1;exitX=0.25;exitY=0;exitDx=0;exitDy=0;entryX=0;entryY=0.5;entryDx=0;entryDy=0;strokeColor=light-dark(#000000,#001DBC);" parent="1" source="33" target="33" edge="1">
                    <mxGeometry relative="1" as="geometry">
                        <mxPoint x="1080" y="280" as="targetPoint"/>
                        <Array as="points">
                            <mxPoint x="1160" y="280"/>
                            <mxPoint x="1070" y="280"/>
                            <mxPoint x="1070" y="340"/>
                        </Array>
                    </mxGeometry>
                </mxCell>
                <mxCell id="126" style="edgeStyle=none;html=1;exitX=0.25;exitY=0;exitDx=0;exitDy=0;entryX=0;entryY=0.5;entryDx=0;entryDy=0;strokeColor=light-dark(#000000,#001DBC);" parent="1" source="33" target="33" edge="1">
                    <mxGeometry relative="1" as="geometry">
                        <mxPoint x="1070" y="259.8076923076923" as="targetPoint"/>
                        <Array as="points">
                            <mxPoint x="1160" y="290"/>
                            <mxPoint x="1080" y="290"/>
                            <mxPoint x="1080" y="340"/>
                        </Array>
                    </mxGeometry>
                </mxCell>
                <mxCell id="127" style="edgeStyle=none;html=1;exitX=0.25;exitY=0;exitDx=0;exitDy=0;strokeColor=light-dark(#000000,#001DBC);" parent="1" source="33" target="33" edge="1">
                    <mxGeometry relative="1" as="geometry">
                        <mxPoint x="1080" y="250" as="targetPoint"/>
                        <Array as="points">
                            <mxPoint x="1160" y="300"/>
                            <mxPoint x="1150" y="300"/>
                            <mxPoint x="1090" y="300"/>
                            <mxPoint x="1090" y="340"/>
                        </Array>
                    </mxGeometry>
                </mxCell>
                <mxCell id="33" value="init_ttl()" style="whiteSpace=wrap;html=1;" parent="1" vertex="1">
                    <mxGeometry x="1130" y="320" width="120" height="40" as="geometry"/>
                </mxCell>
                <mxCell id="34" value="clear_ttl()" style="whiteSpace=wrap;html=1;" parent="1" vertex="1">
                    <mxGeometry x="1130" y="360" width="120" height="40" as="geometry"/>
                </mxCell>
                <mxCell id="42" value="enforce_limits()" style="whiteSpace=wrap;html=1;" parent="1" vertex="1">
                    <mxGeometry x="1290" y="320" width="120" height="40" as="geometry"/>
                </mxCell>
                <mxCell id="78" style="edgeStyle=none;html=1;entryX=1;entryY=0.5;entryDx=0;entryDy=0;fillColor=#e51400;strokeColor=light-dark(#B20000,#FF0000);exitX=0.5;exitY=0;exitDx=0;exitDy=0;" parent="1" source="98" target="22" edge="1">
                    <mxGeometry relative="1" as="geometry">
                        <mxPoint x="990" y="600" as="sourcePoint"/>
                        <Array as="points">
                            <mxPoint x="990" y="560"/>
                            <mxPoint x="910" y="560"/>
                            <mxPoint x="910" y="460"/>
                        </Array>
                    </mxGeometry>
                </mxCell>
                <mxCell id="79" style="edgeStyle=none;html=1;entryX=1;entryY=0.5;entryDx=0;entryDy=0;fillColor=#e51400;strokeColor=light-dark(#B20000,#FF0000);dashed=1;dashPattern=1 1;exitX=0;exitY=0.5;exitDx=0;exitDy=0;" parent="1" source="98" target="23" edge="1">
                    <mxGeometry relative="1" as="geometry">
                        <mxPoint x="970" y="600" as="sourcePoint"/>
                        <Array as="points">
                            <mxPoint x="960" y="600"/>
                            <mxPoint x="960" y="580"/>
                            <mxPoint x="890" y="580"/>
                            <mxPoint x="890" y="500"/>
                        </Array>
                    </mxGeometry>
                </mxCell>
                <mxCell id="91" style="edgeStyle=none;html=1;exitX=0;exitY=0.5;exitDx=0;exitDy=0;entryX=0.25;entryY=1;entryDx=0;entryDy=0;fillColor=#a20025;strokeColor=light-dark(#6F0000,#FF0000);" parent="1" source="53" target="53" edge="1">
                    <mxGeometry relative="1" as="geometry">
                        <mxPoint x="850" y="880" as="targetPoint"/>
                        <Array as="points">
                            <mxPoint x="800" y="820"/>
                            <mxPoint x="800" y="880"/>
                            <mxPoint x="860" y="880"/>
                        </Array>
                    </mxGeometry>
                </mxCell>
                <mxCell id="92" style="edgeStyle=none;html=1;exitX=0;exitY=0.75;exitDx=0;exitDy=0;entryX=0.25;entryY=1;entryDx=0;entryDy=0;fillColor=#a20025;strokeColor=light-dark(#6F0000,#FF0000);" parent="1" source="53" target="53" edge="1">
                    <mxGeometry relative="1" as="geometry">
                        <mxPoint x="850" y="870" as="targetPoint"/>
                        <Array as="points">
                            <mxPoint x="810" y="830"/>
                            <mxPoint x="810" y="870"/>
                            <mxPoint x="860" y="870"/>
                        </Array>
                    </mxGeometry>
                </mxCell>
                <mxCell id="94" style="edgeStyle=none;html=1;exitX=0;exitY=0.25;exitDx=0;exitDy=0;entryX=0.25;entryY=1;entryDx=0;entryDy=0;fillColor=#a20025;strokeColor=light-dark(#6F0000,#FF0000);" parent="1" source="53" target="53" edge="1">
                    <mxGeometry relative="1" as="geometry">
                        <mxPoint x="890" y="890" as="targetPoint"/>
                        <Array as="points">
                            <mxPoint x="790" y="810"/>
                            <mxPoint x="790" y="890"/>
                            <mxPoint x="860" y="890"/>
                        </Array>
                    </mxGeometry>
                </mxCell>
                <mxCell id="95" style="edgeStyle=none;html=1;exitX=0;exitY=0;exitDx=0;exitDy=0;entryX=0.25;entryY=1;entryDx=0;entryDy=0;fillColor=#a20025;strokeColor=light-dark(#6F0000,#FF0000);" parent="1" source="53" target="53" edge="1">
                    <mxGeometry relative="1" as="geometry">
                        <mxPoint x="860" y="940" as="targetPoint"/>
                        <Array as="points">
                            <mxPoint x="780" y="800"/>
                            <mxPoint x="780" y="900"/>
                            <mxPoint x="860" y="900"/>
                        </Array>
                    </mxGeometry>
                </mxCell>
                <mxCell id="53" value="#update()" style="whiteSpace=wrap;html=1;rotation=0;" parent="1" vertex="1">
                    <mxGeometry x="840" y="800" width="80" height="40" as="geometry"/>
                </mxCell>
                <mxCell id="90" style="edgeStyle=none;html=1;exitX=1;exitY=0.75;exitDx=0;exitDy=0;entryX=1;entryY=0.5;entryDx=0;entryDy=0;fillColor=#1ba1e2;strokeColor=light-dark(#006EAF,#3333FF);" parent="1" source="54" target="53" edge="1">
                    <mxGeometry relative="1" as="geometry">
                        <Array as="points">
                            <mxPoint x="1060" y="670"/>
                            <mxPoint x="1210" y="670"/>
                            <mxPoint x="1210" y="820"/>
                        </Array>
                    </mxGeometry>
                </mxCell>
                <mxCell id="54" value="audit()" style="whiteSpace=wrap;html=1;rotation=0;" parent="1" vertex="1">
                    <mxGeometry x="810" y="640" width="80" height="40" as="geometry"/>
                </mxCell>
                <mxCell id="68" style="edgeStyle=none;html=1;exitX=0.5;exitY=1;exitDx=0;exitDy=0;fillColor=#008a00;strokeColor=light-dark(#005700,#00FF00);entryX=1;entryY=0.5;entryDx=0;entryDy=0;" parent="1" source="53" target="81" edge="1">
                    <mxGeometry relative="1" as="geometry">
                        <mxPoint x="690" y="830" as="targetPoint"/>
                        <Array as="points">
                            <mxPoint x="880" y="880"/>
                            <mxPoint x="1290" y="880"/>
                            <mxPoint x="1290" y="650"/>
                            <mxPoint x="1000" y="650"/>
                            <mxPoint x="1000" y="730"/>
                            <mxPoint x="1000" y="770"/>
                            <mxPoint x="720" y="770"/>
                            <mxPoint x="720" y="820"/>
                        </Array>
                    </mxGeometry>
                </mxCell>
                <mxCell id="64" value="performance_monitoring()" style="whiteSpace=wrap;html=1;rotation=0;" parent="1" vertex="1">
                    <mxGeometry x="1160" y="800" width="160" height="40" as="geometry"/>
                </mxCell>
                <mxCell id="44" value="#diagnostics()" style="whiteSpace=wrap;html=1;rotation=0;" parent="1" vertex="1">
                    <mxGeometry x="1160" y="640" width="80" height="40" as="geometry"/>
                </mxCell>
                <mxCell id="88" style="edgeStyle=none;html=1;exitX=1;exitY=0.25;exitDx=0;exitDy=0;fillColor=#e3c800;strokeColor=light-dark(#B09500,#FFFF33);" parent="1" source="81" edge="1">
                    <mxGeometry relative="1" as="geometry">
                        <mxPoint x="990" y="600" as="targetPoint"/>
                        <Array as="points">
                            <mxPoint x="710" y="810"/>
                            <mxPoint x="710" y="760"/>
                            <mxPoint x="990" y="760"/>
                        </Array>
                    </mxGeometry>
                </mxCell>
                <mxCell id="81" value="audit()" style="whiteSpace=wrap;html=1;rotation=0;" parent="1" vertex="1">
                    <mxGeometry x="610" y="800" width="80" height="40" as="geometry"/>
                </mxCell>
                <mxCell id="47" value="interrogate()" style="whiteSpace=wrap;html=1;" parent="1" vertex="1">
                    <mxGeometry x="970" y="640" width="80" height="40" as="geometry"/>
                </mxCell>
                <mxCell id="104" style="edgeStyle=none;html=1;exitX=1;exitY=0.5;exitDx=0;exitDy=0;entryX=1;entryY=0.5;entryDx=0;entryDy=0;fillColor=#008a00;strokeColor=light-dark(#005700,#00FF00);" parent="1" source="98" target="21" edge="1">
                    <mxGeometry relative="1" as="geometry">
                        <mxPoint x="930" y="420" as="targetPoint"/>
                        <Array as="points">
                            <mxPoint x="1440" y="600"/>
                            <mxPoint x="1440" y="820"/>
                            <mxPoint x="1460" y="820"/>
                            <mxPoint x="1460" y="580"/>
                            <mxPoint x="1030" y="580"/>
                            <mxPoint x="1030" y="520"/>
                            <mxPoint x="930" y="520"/>
                            <mxPoint x="930" y="420"/>
                        </Array>
                    </mxGeometry>
                </mxCell>
                <mxCell id="98" value="" style="ellipse;whiteSpace=wrap;html=1;strokeColor=light-dark(#000000,#FFFF33);fillColor=light-dark(#FFFFFF,#FFFF33);" parent="1" vertex="1">
                    <mxGeometry x="980" y="590" width="20" height="20" as="geometry"/>
                </mxCell>
                <mxCell id="99" value="free()" style="whiteSpace=wrap;html=1;rotation=0;" parent="1" vertex="1">
                    <mxGeometry x="1530" y="800" width="80" height="40" as="geometry"/>
                </mxCell>
                <mxCell id="101" value="invalidate()" style="whiteSpace=wrap;html=1;" parent="1" vertex="1">
                    <mxGeometry x="970" y="320" width="120" height="40" as="geometry"/>
                </mxCell>
                <mxCell id="102" value="allocate()" style="whiteSpace=wrap;html=1;rotation=0;" parent="1" vertex="1">
                    <mxGeometry x="1410" y="800" width="80" height="40" as="geometry"/>
                </mxCell>
                <mxCell id="111" value="INTERROGATOR (#CCINT)" style="whiteSpace=wrap;html=1;opacity=75;fillColor=light-dark(#FFFFFF,#003333);" parent="1" vertex="1">
                    <mxGeometry x="280" y="628" width="240" height="37" as="geometry"/>
                </mxCell>
                <mxCell id="114" value="ENFORCER (#CCENF)" style="whiteSpace=wrap;html=1;fillColor=light-dark(#D0CEE2,#330033);strokeColor=#56517e;opacity=75;" parent="1" vertex="1">
                    <mxGeometry x="280" y="300" width="240" height="40" as="geometry"/>
                </mxCell>
                <mxCell id="115" value="CHIMERACACHE INSTANCE" style="whiteSpace=wrap;html=1;opacity=75;fillColor=light-dark(#FFFFFF,#003300);" parent="1" vertex="1">
                    <mxGeometry x="280" y="160" width="240" height="40" as="geometry"/>
                </mxCell>
                <mxCell id="118" value="ORACLE (#CCORC)" style="whiteSpace=wrap;html=1;opacity=75;fillColor=light-dark(#FFFFFF,#33001A);" parent="1" vertex="1">
                    <mxGeometry x="280" y="780" width="240" height="37" as="geometry"/>
                </mxCell>
                <mxCell id="119" value="config = { ... }" style="whiteSpace=wrap;html=1;opacity=50;fillColor=light-dark(#FFFFFF,#003300);" parent="1" vertex="1">
                    <mxGeometry x="280" y="200" width="240" height="40" as="geometry"/>
                </mxCell>
                <mxCell id="120" value="{ caching, ttl, fallback, overrides }" style="whiteSpace=wrap;html=1;fillColor=light-dark(#D0CEE2,#330033);strokeColor=#56517e;opacity=50;" parent="1" vertex="1">
                    <mxGeometry x="280" y="340" width="240" height="40" as="geometry"/>
                </mxCell>
                <mxCell id="122" value="{ caching, fallback: { ..., monitoring } }" style="whiteSpace=wrap;html=1;opacity=50;fillColor=light-dark(#FFFFFF,#003333);" parent="1" vertex="1">
                    <mxGeometry x="280" y="665" width="240" height="37" as="geometry"/>
                </mxCell>
                <mxCell id="123" value="{ monitoring }" style="whiteSpace=wrap;html=1;opacity=50;fillColor=light-dark(#FFFFFF,#33001A);" parent="1" vertex="1">
                    <mxGeometry x="280" y="817" width="240" height="37" as="geometry"/>
                </mxCell>
                <mxCell id="130" value="Cache Entry({})" style="whiteSpace=wrap;html=1;rotation=0;" parent="1" vertex="1">
                    <mxGeometry x="610" y="440" width="80" height="80" as="geometry"/>
                </mxCell>
            </root>
        </mxGraphModel>
    </diagram>
</mxfile>